<svg width="24" height="24" viewBox="0 0 24 24" fill="none" xmlns="http://www.w3.org/2000/svg">
<path fill-rule="evenodd" clip-rule="evenodd" d="M9.82929 4H22V6H9.82929C9.41746 7.16519 8.30622 8 7 8C5.69378 8 4.58254 7.16519 4.17071 6H2V4H4.17071C4.58254 2.83481 5.69378 2 7 2C8.30622 2 9.41746 2.83481 9.82929 4ZM14.8293 11H22V13H14.8293C14.4175 14.1652 13.3062 15 12 15C10.6938 15 9.58254 14.1652 9.17071 13H2V11H9.17071C9.58254 9.83481 10.6938 9 12 9C13.3062 9 14.4175 9.83481 14.8293 11ZM19.8293 18H22V20H19.8293C19.4175 21.1652 18.3062 22 17 22C15.6938 22 14.5825 21.1652 14.1707 20H2V18H14.1707C14.5825 16.8348 15.6938 16 17 16C18.3062 16 19.4175 16.8348 19.8293 18Z" fill="white"/>
</svg>
