<svg width="24" height="24" viewBox="0 0 24 24" fill="none" xmlns="http://www.w3.org/2000/svg">
<path fill-rule="evenodd" clip-rule="evenodd" d="M5.63604 2.63604C7.32387 0.948212 9.61305 0 12 0C14.3869 0 16.6761 0.948212 18.364 2.63604C20.0518 4.32387 21 6.61305 21 9C21 15.4316 13.7585 22.2976 12.762 23.2424C12.7111 23.2907 12.6765 23.3235 12.66 23.34L11.99 23.94L11.32 23.34C11.2994 23.3181 11.2468 23.2675 11.1666 23.1903C10.0019 22.0698 3 15.3336 3 9C3 6.61305 3.94821 4.32387 5.63604 2.63604ZM12 12C13.6569 12 15 10.6569 15 9C15 7.34315 13.6569 6 12 6C10.3431 6 9 7.34315 9 9C9 10.6569 10.3431 12 12 12Z" fill="white" fill-opacity="0.5"/>
</svg>
