<svg width="14" height="14" viewBox="0 0 14 14" fill="none" xmlns="http://www.w3.org/2000/svg">
<path fill-rule="evenodd" clip-rule="evenodd" d="M7 12.25V12.25C4.10025 12.25 1.75 9.89975 1.75 7V7C1.75 4.10025 4.10025 1.75 7 1.75V1.75C9.89975 1.75 12.25 4.10025 12.25 7V7C12.25 9.89975 9.89975 12.25 7 12.25Z" stroke="#777B87" stroke-width="1.5" stroke-linecap="round" stroke-linejoin="round"/>
<path d="M6.99935 9.91667V7H6.41602" stroke="#777B87" stroke-width="1.5" stroke-linecap="round" stroke-linejoin="round"/>
<path d="M6.85359 4.66683C6.77309 4.66683 6.70775 4.73216 6.70834 4.81266C6.70834 4.89316 6.77367 4.9585 6.85417 4.9585C6.93467 4.9585 7 4.89316 7 4.81266C7 4.73216 6.93467 4.66683 6.85359 4.66683" stroke="#777B87" stroke-width="1.5" stroke-linecap="round" stroke-linejoin="round"/>
</svg>
